{
  "accessors": [
    {
      "bufferView": 2,
      "componentType": 5126,
      "count": 1239,
      "max": [
        3.5150671005249023,
        1.9844310283660889,
        1.9437090158462524
      ],
      "min": [
        -3.5150671005249023,
        0.0,
        -1.9437090158462524
      ],
      "type": "VEC3"
    },
    {
      "bufferView": 2,
      "byteOffset": 14868,
      "componentType": 5126,
      "count": 1239,
      "max": [
        0.8698018789291382,
        0.9997668266296387,
        0.9998162984848022
      ],
      "min": [
        -0.9663842916488647,
        -0.9997429251670837,
        -0.9948651194572449
      ],
      "type": "VEC3"
    },
    {
      "bufferView": 1,
      "componentType": 5126,
      "count": 1239,
      "max": [
        0.4853968024253845,
        0.009993434883654118
      ],
      "min": [
        0.4853968024253845,
        0.009993434883654118
      ],
      "type": "VEC2"
    },
    {
      "bufferView": 0,
      "componentType": 5125,
      "count": 1470,
      "type": "SCALAR"
    }
  ],
  "asset": {
    "extras": {
      "author": "nigromancer (https://sketchfab.com/nigromancer)",
      "license": "CC-BY-4.0 (http://creativecommons.org/licenses/by/4.0/)",
      "source": "https://sketchfab.com/3d-models/cloud-3-f64f44d1b99545c681ff5965d3268d32",
      "title": "Cloud 3"
    },
    "generator": "Sketchfab-12.65.0",
    "version": "2.0"
  },
  "bufferViews": [
    {
      "buffer": 0,
      "byteLength": 5880,
      "name": "floatBufferViews",
      "target": 34963
    },
    {
      "buffer": 0,
      "byteLength": 9912,
      "byteOffset": 5880,
      "byteStride": 8,
      "name": "floatBufferViews",
      "target": 34962
    },
    {
      "buffer": 0,
      "byteLength": 29736,
      "byteOffset": 15792,
      "byteStride": 12,
      "name": "floatBufferViews",
      "target": 34962
    }
  ],
  "buffers": [
    {
      "byteLength": 45528,
      "uri": "scene.bin"
    }
  ],
  "images": [
    {
      "uri": "textures/SM_Generic_Cloud_03_PolygonTown_01_A_baseColor.png"
    }
  ],
  "materials": [
    {
      "doubleSided": true,
      "name": "SM_Generic_Cloud_03_PolygonTown_01_A",
      "pbrMetallicRoughness": {
        "baseColorTexture": {
          "index": 0
        },
        "metallicFactor": 0.0,
        "roughnessFactor": 0.9577051494623774
      }
    }
  ],
  "meshes": [
    {
      "name": "SM_Generic_Cloud_03_SM_Generic_Cloud_03_PolygonTown_01_A_0",
      "primitives": [
        {
          "attributes": {
            "NORMAL": 1,
            "POSITION": 0,
            "TEXCOORD_0": 2
          },
          "indices": 3,
          "material": 0,
          "mode": 4
        }
      ]
    }
  ],
  "nodes": [
    {
      "children": [
        1
      ],
      "matrix": [
        1.0,
        0.0,
        0.0,
        0.0,
        0.0,
        2.220446049250313e-16,
        -1.0,
        0.0,
        0.0,
        1.0,
        2.220446049250313e-16,
        0.0,
        0.0,
        0.0,
        0.0,
        1.0
      ],
      "name": "Sketchfab_model"
    },
    {
      "children": [
        2
      ],
      "matrix": [
        1.0,
        0.0,
        0.0,
        0.0,
        0.0,
        0.0,
        1.0,
        0.0,
        0.0,
        -1.0,
        0.0,
        0.0,
        0.0,
        0.0,
        0.0,
        1.0
      ],
      "name": "SM_Generic_Cloud_03.fbx"
    },
    {
      "children": [
        3
      ],
      "name": "RootNode"
    },
    {
      "children": [
        4
      ],
      "name": "SM_Generic_Cloud_03"
    },
    {
      "mesh": 0,
      "name": "SM_Generic_Cloud_03_SM_Generic_Cloud_03_PolygonTown_01_A_0"
    }
  ],
  "samplers": [
    {
      "magFilter": 9729,
      "minFilter": 9987,
      "wrapS": 10497,
      "wrapT": 10497
    }
  ],
  "scene": 0,
  "scenes": [
    {
      "name": "Sketchfab_Scene",
      "nodes": [
        0
      ]
    }
  ],
  "textures": [
    {
      "sampler": 0,
      "source": 0
    }
  ]
}
