{
  "accessors": [
    {
      "bufferView": 2,
      "componentType": 5126,
      "count": 770,
      "max": [
        3.33923602104187,
        1.6512930393218994,
        0.8041983842849731
      ],
      "min": [
        -3.3392369747161865,
        0.0,
        -0.80419921875
      ],
      "type": "VEC3"
    },
    {
      "bufferView": 2,
      "byteOffset": 9240,
      "componentType": 5126,
      "count": 770,
      "max": [
        0.9289399981498718,
        0.9986090064048767,
        0.9957305788993835
      ],
      "min": [
        -0.898996889591217,
        -0.9980821013450623,
        -0.997338593006134
      ],
      "type": "VEC3"
    },
    {
      "bufferView": 1,
      "componentType": 5126,
      "count": 770,
      "max": [
        0.4853968024253845,
        0.009993434883654118
      ],
      "min": [
        0.4853968024253845,
        0.009993434883654118
      ],
      "type": "VEC2"
    },
    {
      "bufferView": 0,
      "componentType": 5125,
      "count": 840,
      "type": "SCALAR"
    }
  ],
  "asset": {
    "extras": {
      "author": "nigromancer (https://sketchfab.com/nigromancer)",
      "license": "CC-BY-4.0 (http://creativecommons.org/licenses/by/4.0/)",
      "source": "https://sketchfab.com/3d-models/cloud-1-06579cccf1f64a4f88d8be57bd73fafe",
      "title": "Cloud 1"
    },
    "generator": "Sketchfab-12.65.0",
    "version": "2.0"
  },
  "bufferViews": [
    {
      "buffer": 0,
      "byteLength": 3360,
      "name": "floatBufferViews",
      "target": 34963
    },
    {
      "buffer": 0,
      "byteLength": 6160,
      "byteOffset": 3360,
      "byteStride": 8,
      "name": "floatBufferViews",
      "target": 34962
    },
    {
      "buffer": 0,
      "byteLength": 18480,
      "byteOffset": 9520,
      "byteStride": 12,
      "name": "floatBufferViews",
      "target": 34962
    }
  ],
  "buffers": [
    {
      "byteLength": 28000,
      "uri": "scene.bin"
    }
  ],
  "images": [
    {
      "uri": "textures/SM_Generic_Cloud_01_PolygonTown_01_A_baseColor.png"
    }
  ],
  "materials": [
    {
      "doubleSided": true,
      "name": "SM_Generic_Cloud_01_PolygonTown_01_A",
      "pbrMetallicRoughness": {
        "baseColorTexture": {
          "index": 0
        },
        "metallicFactor": 0.0,
        "roughnessFactor": 0.9577051494623774
      }
    }
  ],
  "meshes": [
    {
      "name": "SM_Generic_Cloud_01_SM_Generic_Cloud_01_PolygonTown_01_A_0",
      "primitives": [
        {
          "attributes": {
            "NORMAL": 1,
            "POSITION": 0,
            "TEXCOORD_0": 2
          },
          "indices": 3,
          "material": 0,
          "mode": 4
        }
      ]
    }
  ],
  "nodes": [
    {
      "children": [
        1
      ],
      "matrix": [
        1.0,
        0.0,
        0.0,
        0.0,
        0.0,
        2.220446049250313e-16,
        -1.0,
        0.0,
        0.0,
        1.0,
        2.220446049250313e-16,
        0.0,
        0.0,
        0.0,
        0.0,
        1.0
      ],
      "name": "Sketchfab_model"
    },
    {
      "children": [
        2
      ],
      "matrix": [
        1.0,
        0.0,
        0.0,
        0.0,
        0.0,
        0.0,
        1.0,
        0.0,
        0.0,
        -1.0,
        0.0,
        0.0,
        0.0,
        0.0,
        0.0,
        1.0
      ],
      "name": "SM_Generic_Cloud_01.fbx"
    },
    {
      "children": [
        3
      ],
      "name": "RootNode"
    },
    {
      "children": [
        4
      ],
      "name": "SM_Generic_Cloud_01"
    },
    {
      "mesh": 0,
      "name": "SM_Generic_Cloud_01_SM_Generic_Cloud_01_PolygonTown_01_A_0"
    }
  ],
  "samplers": [
    {
      "magFilter": 9729,
      "minFilter": 9987,
      "wrapS": 10497,
      "wrapT": 10497
    }
  ],
  "scene": 0,
  "scenes": [
    {
      "name": "Sketchfab_Scene",
      "nodes": [
        0
      ]
    }
  ],
  "textures": [
    {
      "sampler": 0,
      "source": 0
    }
  ]
}
